# xmcd
#
# Track frame offsets:
#	150
#	13761
#	28680
#	44280
#	54257
#	69512
#	80912
#	94382
#	114197
#	126872
#	139436
#	157106
#
# Disc length: 2237 seconds
#
# Revision: 1
# Processed by: cddbd v1.5.2PL0 Copyright (c) Steve Scherf et al.
# Submitted via: audiograbber 1.83.01
#
DISCID=a708bb0c
DTITLE=Jack Pot and the Nuggets - Jack Pot and the Nuggets
DYEAR=2010
DGENRE=Blues
TTITLE0=With A Gun
TTITLE1=Boat On The River
TTITLE2=Heute hier, morgen dort
TTITLE3=Tequila Sunrise
TTITLE4=The Star Of The county Down
TTITLE5=To Know You
TTITLE6=Whiskey In The Jar
TTITLE7=Mrs. Robinson
TTITLE8=Jack Pot Blues
TTITLE9=Arabisch
TTITLE10=Nothing Ever Happens
TTITLE11=Sunday With A Flu
EXTD=www.jackpot-nuggets.ch
EXTT0=
EXTT1=
EXTT2=
EXTT3=
EXTT4=
EXTT5=
EXTT6=
EXTT7=
EXTT8=
EXTT9=
EXTT10=
EXTT11=
PLAYORDER=
